<!DOCTYPE svg PUBLIC "-//W3C//DTD SVG 1.0//EN" "http://www.w3.org/TR/2001/REC-SVG-20010904/DTD/svg10.dtd">
<svg width="900" height="600" viewBox="0 0 900 600"
    xmlns="http://www.w3.org/2000/svg"
    xmlns:xlink="http://www.w3.org/1999/xlink">
    <title>Red Flag constructed from starCoord.dat</title>

    <g style="fill: none; stroke: none; ">
        <rect width="900" height="600" fill="#DE2910" />
        <rect width="450" height="300" fill="#DE2910" transform="translate(0, 0)" />

        <polygon id="little_star_1" fill="#FFDE00" stroke="#FFDE00"
                points="
                274 75 294.9688402861076 71.29043118899132
                306.2279468807587 89.34642529594444 309.1831243010649 68.2738523416383
                329.8346504338958 63.14541467651604 310.7066426548656 53.82309077603905
                312.2108811298607 32.597547882855224 297.4339447650415 47.908607812531095
                277.71208913694284 39.91893853999697 287.70744799292044 58.70401788080022
        "/>

        <polygon id="little_star_2" fill="#FFDE00" stroke="#FFDE00"
                points="
                330 124 351.04794662622885 128.52332944882426
                354.58166701802503 149.5066376887717 365.3398313857878 131.1477623436902
                386.38812307525393 134.27119338265902 372.25225066438145 118.36636657808248
                381.7270899417973 99.31344488173416 362.2324759634834 107.84259667640697
                347.0399569854028 92.9438124441046 349.1274953601185 114.1199449529961
        "/>

        <polygon id="little_star_3" fill="#FFDE00" stroke="#FFDE00"
                points="
                331 202 348.42798655225664 214.34452635684133
                343.4758917594878 235.03904644461997 360.5559412874019 222.34817127290532
                378.7073180197634 233.45285169243675 371.91560405910707 213.2870631887192
                388.0858666150794 199.45561303441644 366.8083070176125 199.68334550089176
                358.6507021518516 180.0303587723012 352.29216108362186 200.3368936806424
        "/>

        <polygon id="little_star_4" fill="#FFDE00" stroke="#FFDE00"
                points="
                277 251 287.66316791832514 269.2325505302629
                274.6814839938253 286.09263021525925 295.4578214108917 281.4958696132432
                307.48114911228845 299.0522358513025 309.52961133063394 277.87228762095845
                329.9421204324751 271.8626389900239 310.43180229101614 263.36947170572415
                311.02409901022384 242.09893835330308 296.91759704913306 258.0298205298112
        "/>

        <polygon id="little_star_5" transform="scale(3) translate(50,50) rotate(14)" fill="#FFDE00" stroke="#FFDE00"
                points="
                -29 -2 -10.476179739972762 6.5601876921187445
                -11.211582094563106 27.826254274279748 3.0017916769306936 11.99064849073442
                22.99977105058976 19.261633669563267 12.331389023462476 0.8504406223077557
                25.42622233729345 -15.921909987640289 4.6194258680664895 -11.465047280734614
                -7.285501440630613 -29.101915207741385 -9.476426828486899 -7.936229524426307
        "/>
        <line x1="0" x2="450" y1="150" y2="150" stroke="green" fill="green"/>
        <line x1="150" x2="150" y1="0" y2="300" stroke="green" fill="green"/>
        <line x1="0" x2="900" y1="300" y2="300" stroke="blue" fill="blue"/>
        <line x1="450" x2="450" y1="0" y2="600" stroke="blue" fill="blue"/>

    </g>
</svg>
