<svg width="300" height="300" viewBox="0 0 300 300" xmlns="http://www.w3.org/2000/svg">
    <!--M: moveto; L: lineto; H: horizontal Lineto; V: vertical Lineto-->
    <!--upper case means absolute coordinate points-->
    <g style="stroke:black; fill:none;">
        <path d="M 10 10 L 100 10" />
        <path d="M 10,20 L 100,20 L 100,50" />
        <path d="M 40 60 L 10,60 L 40,42.68
                 M 60,60 L 90,60 L 60,42.68" />
    </g>
    <g style="stroke:black; fill:none;">
        <path d="M 10,90 L 40,90 L 40,110 L 10,110 L 10,90" />
        <path d="M 60,90 L 90,90 L 90,110 L 60,110 Z" />
        <path d="M 40,150 L 10,150 L 40,132.68 Z
                 M 60,150 L 90,150 L 60,132.68 Z" />
    </g>
    <line x1="120" x2="120" y1="0" y2="170" stroke="aqua" stroke-width="2" stroke-dasharray="10 2" />
    <g style="stroke:black; stroke-width:8; fill:none;">
        <path d="M 150,10 L 190,10 L 190,30 L 150,30 L 150,10" />
        <path d="M 150,50 L 190,50 L 190,70 L 150,70 Z" />
    </g>
    <!--lower case means relative coordinate points for current brush-->
    <g style="stroke:black; fill:none;">
        <path d="M150,90 L160,90 L160,100 M180,110 L195,105" />
        <path d="M150,130 l10,0 l0,10 m20,10 l15,-5" />
    </g>
    <line x1="210" x2="210" y1="0" y2="170" stroke="aqua" stroke-width="2" stroke-dasharray="10 2" />
    <!--H,h,V,v short for lineto-->
    <g style="stroke:black; fill:none;">
        <path d="M 220,10 h 15 v 25 h -15 z" />
    </g>
    <line x1="0" x2="300" y1="170" y2="170" stroke="aqua" stroke-width="2" stroke-dasharray="10 2" />
    <!--Z,z closepath-->
    <g style="fill:none;">
        <path d="M10,200 L35,175 L60,200 L35,225 Z" stroke="black" />
        <path d="M75,200 L100,175 125,200 100,225 Z" stroke="black" />
        <path d="M140,200 L165,175 190,200 165,225 Z" stroke="black" />
        <path d="m10,260l25,-25l25,25l-25,25z" stroke="red" />
        <path d="m75,260l25,-25 25,25 -25,25z" stroke="red" />
        <path d="m140,260 25,-25 25,25 -25,25Z" stroke="red" />
    </g>
</svg>