<svg width="500" height="300" viewBox="0 0 500 300" xmlns="http://www.w3.org/2000/svg">
    <path d="M30 100 Q 80 30 100 100 T 200 80" style="stroke:black; fill:none;" />
    <line x1="220" x2="220" y1="10" y2="170" style="stroke:gray;" />
    <g transform="translate(200,0)">
        <g>
            <g style="stroke:gray; fill:none;">
                <path d="M30 100 80 30 100 100" />
                <path d="M55 65 90 65" />
                <path d="M100 100 120 170" style="stroke-dasharray:5 5;" />
                <path d="M120 170 200 80" />
                <path d="M110 135 160 125" />
            </g>
            <g>
                <circle cx="30" cy="100" r="3" style="stroke:red; fill:red; fill-opacity:0.5;" />
                <circle cx="80" cy="30" r="3" style="stroke:red; fill:red; fill-opacity:0.5;" />
                <circle cx="100" cy="100" r="3" style="stroke:red; fill:red; fill-opacity:0.5;" />
                <circle cx="200" cy="80" r="3" style="stroke:red; fill:red; fill-opacity:0.5;" />
                <circle cx="120" cy="170" r="3" style="stroke:red; fill:red; fill-opacity:0.5;" />
            </g>
            <path d="M30 100 Q 80 30 100 100 T 200 80" style="stroke:black; fill:none;" />
        </g>
    </g>
</svg>