<svg width="500" height="300" viewBox="0 0 500 300" xmlns="http://www.w3.org/2000/svg">
    <!--S,s smooth-->
    <path d="M30 100 C 50 30, 70 50, 100 100 S 150 40, 200 80" style="fill: none; stroke: black;"/>
    <line x1="220" y1="10" x2="220" y2="170" style="stroke: gray;"/>
    <g transform="translate(200,0)">
        <path d="M30 100 50 30 70 50 100 100" style="fill:none; stroke:gray;" />
        <path d="M100 100 130 150" style="fill:none; stroke:red; stroke-dasharray:5 5;" />
        <path d="M130 150 150 40 200 80" style="fill:none; stroke:gray;" />
        <g style="stroke:red; fill:red; fill-opacity:0.5">
            <circle cx="30" cy="100" r="3" />
            <circle cx="100" cy="100" r="3" />
            <circle cx="200" cy="80" r="3" />
            <circle cx="50" cy="30" r="3" />
            <circle cx="70" cy="50" r="3" />
            <circle cx="150" cy="40" r="3" />
            <circle cx="130" cy="150" r="3" />
        </g>
        <path d="M30 100 C50 30 70 50 100 100 S 150 40 200 80" style="fill: none; stroke: black;"/>
    </g>
</svg>