<svg width="600" height="375" viewBox="0 0 600 375" xmlns="http://www.w3.org/2000/svg">
    <!--first row-->
    <g>
        <path d="M40,50 C10,10 140,10 110,50" style="fill:none; stroke:black; stroke-width:2;"/>
        <text x="10" y="70" style="font-size: 8pt;">M 40 50 C 10 10, 140 10, 110 50</text>
    </g>
    <g transform="translate(200,0)">
        <path d="M40,50 C60,10 90 10, 110,50" style="fill:none; stroke:black; stroke-width:2;" />
        <text x="10" y="70" style="font-size: 8pt;">M 40 50 C 60 10, 90 10, 110 50</text>
    </g>
    <g transform="translate(400,0)">
        <path d="M40,50 C110,10 40,10 110,50" style="fill:none; stroke:black; stroke-width:2;" />
        <text x="10" y="70" style="font-size: 8pt;">M 40 50 C 110 10, 40 10, 110 50</text>
    </g>
    <!--second row-->
    <g transform="translate(0,100)">
        <path d="M40,50 C10,10 140,90 110,50" style="fill:none; stroke:black; stroke-width:2;" />
        <text x="10" y="115" style="font-size: 8pt;">M 40 50 C 110 10, 40 10, 110 50</text>
    </g>
    <g transform="translate(200,100)">
        <path d="M40,50 C60,10 90,90 110,50" style="fill:none; stroke:black; stroke-width:2;" />
        <text x="10" y="115" style="font-size: 8pt;">M 40 50 C 60 10, 90 90, 110 50</text>
    </g>
    <g transform="translate(400,100)">
        <path d="M40,50 C110,10 40,90 110,50" style="fill:none; stroke:black; stroke-width:2;" />
        <text x="10" y="115" style="font-size: 8pt;">M 40 50 C 110 10, 40 90, 110 50</text>
    </g>

    <path d="M200 0 200 250 M390 0 390 250" style="fill:none; stroke:gray; stroke-width:2;" />
</svg>