<svg width="250" height="250" viewBox="0 0 250 250" xmlns="http://www.w3.org/2000/svg">
    <g transform="translate(100,0)">
        <path d="M30 100 50 50 70 20 100 100" style="stroke:gray; fill:none;"/>
        <path d="M100 100 110 130 45 150 65 100" style="stroke:gray; fill:none;"/>
        <g style="stroke:red;fill:red;fill-opacity:0.5">
            <circle cx="30" cy="100" r="3" />
            <circle cx="50" cy="50" r="3" />
            <circle cx="70" cy="20" r="3" />
            <circle cx="100" cy="100" r="3" />
            <circle cx="110" cy="130" r="3" />
            <circle cx="45" cy="150" r="3" />
            <circle cx="65" cy="100" r="3" />
        </g>
        <path d="M30 100 C50 50 70 20 100 100 110 130 45 150 65 100" style="stroke:black; fill:none;" />
    </g>
    <line x1="120" x2="120" y1="10" y2="150" style="stroke:gray;" />
    <path d="M30 100 C50 50 70 20 100 100 110 130 45 150 65 100" style="stroke:black; fill:none;" />
</svg>