<svg width="400" height="400" viewBox="0 0 400 400" 
    xmlns="http://www.w3.org/2000/svg"
    xmlns:xlink="http://www.w3.org/1999/xlink">
    <defs>
        <path id="curve_path" d="M30 40 C50 10 70 10 120 40 S150 0 200 40" style="stroke:gray; fill:none;" />
        <path id="round_corner" d="M250 30 L300 30 A30 30 0 0 1 330 60 L330 110" style="stroke:gray; fill:none;" />
        <path id="sharp_corner" d="M30 110 100 110 100 160" style="stroke:gray; fill:none;" />
        <path id="discontinuous" d="M150 110 A40 30 0 1 0 230 110 M250 110 270 140" style="stroke:gray; fill:none;" />
    </defs>
    <g style="font-family:'Liberation Sans'; font-size:10pt;">        
        <use xlink:href="#curve_path"/>
        <text>
            <textPath xlink:href="#curve_path">
                Following a cubic B&#xe9;zier curve.
            </textPath>            
        </text>
        <use xlink:href="#round_corner"/>
        <text>
            <textPath xlink:href="#round_corner">
                Going 'round the bend
            </textPath>
        </text>
        <use xlink:href="#sharp_corner"/>
        <text>
            <textPath xlink:href="#sharp_corner">
                Making a quick turn
            </textPath>
        </text>
        <use xlink:href="#discontinuous"/>
        <text>
            <textPath xlink:href="#discontinuous">
                Text along a broken path
            </textPath>
        </text>
    </g>

    <defs>
        <path id="short_corner" transform="translate(40,180)" 
            d="M0 0 L30 0 A30 30 0 0 1 60 30 L60 60" 
            style="stroke:gray; fill:none;" />
        <path id="long_corner" transform="translate(140,180)" 
            d="M0 0 L50 0 A30 30 0 0 1 80 30 L80 80"
            style="stroke:gray; fill:none;" />
    </defs>
    <g style="font-family:'Liberation Sans'; font-size:12pt;">
        <use xlink:href="#short_corner" />
        <text>
            <textPath xlink:href="#short_corner">
                This text is too long for the path.
            </textPath>
        </text>
        <use xlink:href="#long_corner" />
        <text style="text-anchor:middle;">
            <textPath xlink:href="#long_corner" startOffset="50%">
                centered.
            </textPath>
        </text>
    </g>
    <text xml:space="default" x="0" y="280">

    _abc_    _def_

    _ghi_


    </text>
    <text xml:space="preserve" x="0" y="320">

    _abc_    _def_

    _ghi_

    
    </text>
</svg>