<svg width="500" height="500" viewBox="0 0 500 500" xmlns="http://www.w3.org/2000/svg">
    <defs>
        <pattern id="tile1" x="0" y="0" width="20%" height="20%" patternUnits="objectBoundingBox">
            <path d="M0 0 Q5 20 10 10 T20 20" style="fill:none; stroke:black;" />
            <path d="M0 0 h20 v20 h-20 z" style="fill:none; stroke:gray;" />
        </pattern>
        <pattern id="tile2" x="20" y="150" width="20" height="20" patternUnits="userSpaceOnUse">
            <path d="M0 0 Q5 20 10 10 T20 20" style="fill:none; stroke:black;" />
            <path d="M0 0 h20 v20 h-20 z" style="fill:none; stroke:gray;" />
        </pattern>
    </defs>
    <rect width="100" height="100" x="20" y="20" style="fill:url(#tile1); stroke:black;" />
    <rect width="70" height="80" x="135" y="20" style="fill:url(#tile1); stroke:black;" />
    <rect width="150" height="130" x="220" y="20" style="fill:url(#tile1); stroke:black;" />
    <text x="20" y="165" style="font-weight:bold;">
        patternUnits="objectBoundingBox", width="20%", height="20%" 
    </text>

    <rect width="100" height="100" x="20" y="200" style="fill:url(#tile2); stroke:black;" />
    <rect width="70" height="80" x="135" y="200" style="fill:url(#tile2); stroke:black;" />
    <rect width="150" height="130" x="220" y="200" style="fill:url(#tile2); stroke:black;" />
    <text x="20" y="345" style="font-weight:bold;">
        patternUnits="userSpaceOnUse", width="20", height="20" 
    </text>
</svg>