<svg width="500" height="200" viewBox="0 0 500 200" 
    xmlns="http://www.w3.org/2000/svg"
    xmlns:xlink="http://www.w3.org/1999/xlink">
    <defs>
        <!--Cat-->
        <g id="cat" stroke-width="2">
            <!--Head-->
            <circle cx="70" cy="95" r="50" style="stroke:black; fill:none;" />
            <!--Eyes-->
            <circle cx="55" cy="80" r="5" style="stroke:black; fill:#339933" />
            <circle cx="85" cy="80" r="5" stroke="black" fill="#339933" />
            <!--Whiskers-->
            <g id="whiskers">
                <line x1="75" x2="135" y1="95" y2="85" style="stroke:black;" />
                <line x1="75" x2="135" y1="95" y2="105" style="stroke:black;" />
            </g>
            <use xlink:href="#whiskers" transform="scale(-1 1) translate(-140 0)">        
            </use>
            <!--Ears-->
            <polyline points="108 62, 90 10, 70 45, 50, 10, 32, 62" style="stroke:black; fill:none;" />
            <!--Mouth-->
            <polyline points="35 110, 45 120, 95 120, 105, 110" style="stroke:black; fill:none;" />
            <!--Nose-->
            <path d="M 75 90 L 65 90 A 5 10 0 0 0 75 90" style="stroke:black; fill:#ffcccc" />
        </g>
        <filter id="erode_1">
            <feMorphology operator="erode" radius="1" />
        </filter>
        <filter id="dilate_2">
            <feMorphology operator="dilate" radius="2" />
        </filter>
    </defs>
    <g>
        <use xlink:href="#cat"/>
        <text x="50" y="170">Normal</text>
    </g>
    <g transform="translate(150,0)">
        <use xlink:href="#cat" filter="url(#erode_1)"/>
        <text x="50" y="170">Erode 1</text>
    </g>
    <g transform="translate(300,0)">
        <use xlink:href="#cat" filter="url(#dilate_2)"/>
        <text x="50" y="170">Dilate 2</text>
    </g>
</svg>