<svg width="200" height="200" viewBox="0 0 200 200"
    xmlns="http://www.w3.org/2000/svg"
    xmlns:xlink="http://www.w3.org/1999/xlink">
    <defs>
        <linearGradient id="gradient">
            <stop offset="0%" stop-color="#f00" />
            <stop offset="50%" stop-color="#0f0" />
            <stop offset="100%" stop-color="#000" />
        </linearGradient>
        <rect id="rectangle" width="100" height="200" x="0" y="0" fill="url(#gradient)" />
        <filter id="displace">
            <feImage xlink:href="#rectangle" result="grad" />
            <feDisplacementMap scale="10" xChannelSelector="R"
                yChannelSelector="G" in="SourceGraphic" in2="grad" />
        </filter>
        <g id="petal">
            <path d="M 10 0 Q 27 -15 40 0 27 15 10 0" />
        </g>
        <g id="flower">
            <path d="M 50 50 Q 40 70 70 100 T 70 150"
                style="stroke: green; fill: none; stroke-width: 3;"/>
            <path d="M 70 100 Q 80 70, 120 80, 90 75 75 105"
                style="stroke: none; fill: green;"/>
            <circle cx="40" cy="50" r="10" style="fill: gray;"/>
            <g style="stroke: black; fill: yellow;">
                <use xlink:href="#petal" transform="translate(40,50)"/>
                <use xlink:href="#petal" transform="translate(40,50)
                rotate(40)"/>
                <use xlink:href="#petal" transform="translate(40,50)
                rotate(80)"/>
                <use xlink:href="#petal" transform="translate(40,50)
                rotate(120)"/>
                <use xlink:href="#petal" transform="translate(40,50)
                rotate(160)"/>
                <use xlink:href="#petal" transform="translate(40,50)
                rotate(200)"/>
                <use xlink:href="#petal" transform="translate(40,50)
                rotate(240)"/>
                <use xlink:href="#petal" transform="translate(40,50)
                rotate(280)"/>
                <use xlink:href="#petal" transform="translate(40,50)
                rotate(320)"/>
            </g>
        </g>
    </defs>
    <use xlink:href="#flower" style="filter:url(#displace);" />
</svg>