<svg width="200" height="200" viewBox="0 0 200 200" 
    xmlns="http://www.w3.org/2000/svg"
    xmlns:xlink="http://www.w3.org/1999/xlink">
    <svg width="500" height="500" viewBox="0 0 500 500" 
    xmlns="http://www.w3.org/2000/svg"
    xmlns:xlink="http://www.w3.org/1999/xlink">
    <defs>
        <!--glow-->
        <filter id="glow">
            <!--values=" 0 0 0 red 0    ==>R
                         0 0 0 green 0  ==>G
                         0 0 0 blue 0   ==>B
                         0 0 0 1 0"     ==>A
            -->
            <feColorMatrix type="matrix" values="0 0 0 0 0, 0 0 0 0.9 0, 0 0 0 0.9 0, 0 0 0 1 0" />
            <feGaussianBlur stdDeviation="2.5" result="coloredBlur" />
            <feMerge>
                <feMergeNode in="coloredBlur" />                    
                <feMergeNode in="SourceGraphic" />
            </feMerge>
        </filter>
        <!--offsetBlur-->
        <filter id="drop_shadow_1">
            <feGaussianBlur in="SourceAlpha" stdDeviation="2" result="blur" />
            <feOffset in="blur" dx="4" dy="4" result="offsetBlur" />
            <feMerge>
                <feMergeNode in="offsetBlur" />                    
                <feMergeNode in="SourceGraphic" />
            </feMerge>
        </filter>
        <g id="petal">
            <path d="M10 0 Q27 -15 40 0 27 15 10 0" />
        </g>
    </defs>
    <g id="flower_1" filter="url(#drop_shadow_1)">
        <path d="M50 50 Q40 70 70 100 T70 150" style="stroke:green; fill:none; stroke-width:3;" />
        <path d="M70 100 Q80 70 120 80 90 75 75 105" style="stroke:none; fill:green;" />
        <circle cx="40" cy="50" r="10" style="fill:gray;" />
        <g style="stroke:black; fill:yellow;">
            <use xlink:href="#petal" transform="translate(40,50)" />
            <use xlink:href="#petal" transform="translate(40,50) rotate(40)" />
            <use xlink:href="#petal" transform="translate(40,50) rotate(80)" />
            <use xlink:href="#petal" transform="translate(40,50) rotate(120)" />
            <use xlink:href="#petal" transform="translate(40,50) rotate(160)" />
            <use xlink:href="#petal" transform="translate(40,50) rotate(200)" />
            <use xlink:href="#petal" transform="translate(40,50) rotate(240)" />
            <use xlink:href="#petal" transform="translate(40,50) rotate(280)" />
            <use xlink:href="#petal" transform="translate(40,50) rotate(320)" />
        </g>
    </g>
    <text x="10" y="170">stdDeviation="2"</text>
    <text x="120" y="50" style="filter:url(#glow);fill:#033; font-size:18;">
        Spring<tspan x="120" y="70">Flower</tspan>
    </text>
</svg>