<svg width="300" height="200" viewBox="0 0 300 200" 
    xmlns="http://www.w3.org/2000/svg"
    xmlns:xlink="http://www.w3.org/1999/xlink">
    <defs>
        <filter id="sky_shadow" filterUnits="objectBoundingBox">
            <feImage xlink:href="sky.jpg" result="sky" preserveAspectRatio="none"
                x="10" y="10" width="100%" height="100%" />
            <feGaussianBlur in="SourceAlpha" stdDeviation="2" result="blur" />
            <feOffset in="blur" dx="8" dy="8" result="offsetBlur" />
            <feMerge>
                <feMergeNode in="sky" />
                <feMergeNode in="offsetBlur" />
                <feMergeNode in="SourceGraphic" />
            </feMerge>
        </filter>
        <g id="petal">
            <path d="M10 0 Q27 -15 40 0 27 15 10 0" />
        </g>
    </defs>
    <g id="flower_1" filter="url(#sky_shadow)">
        <path d="M60 60 Q50 80 80 110 T80 160" style="stroke:green; fill:none; stroke-width:3;" />
        <path d="M80 110 Q90 80 130 90 100 85 85 115" style="stroke:none; fill:green;" />
        <circle cx="50" cy="60" r="10" style="fill:gray;" />
        <g style="stroke:black; fill:yellow;">
            <use xlink:href="#petal" transform="translate(50,60)" />
            <use xlink:href="#petal" transform="translate(50,60) rotate(40)" />
            <use xlink:href="#petal" transform="translate(50,60) rotate(80)" />
            <use xlink:href="#petal" transform="translate(50,60) rotate(120)" />
            <use xlink:href="#petal" transform="translate(50,60) rotate(160)" />
            <use xlink:href="#petal" transform="translate(50,60) rotate(200)" />
            <use xlink:href="#petal" transform="translate(50,60) rotate(240)" />
            <use xlink:href="#petal" transform="translate(50,60) rotate(280)" />
            <use xlink:href="#petal" transform="translate(50,60) rotate(320)" />
        </g>
    </g>
    <image xlink:href="sky.jpg" x="170" y="10" width="122" height="104" />
</svg>