<svg width="450" height="200" viewBox="0 0 450 200" 
    xmlns="http://www.w3.org/2000/svg"
    xmlns:xlink="http://www.w3.org/1999/xlink">
    <defs>
        <!--linear transfer-->
        <filter id="brightness_shadow" filterUnits="objectBoundingBox">
            <feImage xlink:href="sky.jpg" result="sky" preserveAspectRatio="none"
                x="10" y="10" width="100%" height="100%" />
            <feComponentTransfer in="sky" result="sky">
                <feFuncB type="linear" slope="3" intercept="0" />
                <feFuncG type="linear" slope="1.5" intercept="0.2" />
                <feFuncR type="linear" slope="1.5" intercept="0.2" />
            </feComponentTransfer>
            <feGaussianBlur in="SourceAlpha" stdDeviation="2" result="blur" />
            <feOffset in="blur" dx="8" dy="8" result="offsetBlur" />
            <feMerge>
                <feMergeNode in="sky" />
                <feMergeNode in="offsetBlur" />
                <feMergeNode in="SourceGraphic" />
            </feMerge>
        </filter>
        <!--gamma transfer-->
        <filter id="gamma_shadow" filterUnits="objectBoundingBox">
            <feImage xlink:href="sky.jpg" result="sky" preserveAspectRatio="none"
                x="0" y="0" width="100%" height="100%" />
            <feComponentTransfer in="sky" result="sky">
                <feFuncB type="gamma" amplitude="1" exponent="0.2" offset="0" />
                <feFuncG type="gamma" amplitude="1" exponent="0.707" offset="0" />
                <feFuncR type="gamma" amplitude="1" exponent="0.707" offset="0" />
            </feComponentTransfer>
            <feGaussianBlur in="SourceAlpha" stdDeviation="2" result="blur" />
            <feOffset in="blur" dx="8" dy="8" result="offsetBlur" />
            <feMerge>
                <feMergeNode in="sky" />
                <feMergeNode in="offsetBlur" />
                <feMergeNode in="SourceGraphic" />
            </feMerge>
        </filter>
        <g id="petal">
            <path d="M10 0 Q27 -15 40 0 27 15 10 0" />
        </g>
    </defs>
    <g id="flower_linear" filter="url(#brightness_shadow)">
        <path d="M60 60 Q50 80 80 110 T80 160" style="stroke:green; fill:none; stroke-width:3;" />
        <path d="M80 110 Q90 80 130 90 100 85 85 115" style="stroke:none; fill:green;" />
        <circle cx="50" cy="60" r="10" style="fill:gray;" />
        <g style="stroke:black; fill:yellow;">
            <use xlink:href="#petal" transform="translate(50,60)" />
            <use xlink:href="#petal" transform="translate(50,60) rotate(40)" />
            <use xlink:href="#petal" transform="translate(50,60) rotate(80)" />
            <use xlink:href="#petal" transform="translate(50,60) rotate(120)" />
            <use xlink:href="#petal" transform="translate(50,60) rotate(160)" />
            <use xlink:href="#petal" transform="translate(50,60) rotate(200)" />
            <use xlink:href="#petal" transform="translate(50,60) rotate(240)" />
            <use xlink:href="#petal" transform="translate(50,60) rotate(280)" />
            <use xlink:href="#petal" transform="translate(50,60) rotate(320)" />
        </g>
    </g>
    <text>
        <tspan x="40" y="190">linear</tspan>
    </text>
    <g id="flower_gamma" filter="url(#gamma_shadow)" transform="translate(170,0)">
        <path d="M60 60 Q50 80 80 110 T80 160" style="stroke:green; fill:none; stroke-width:3;" />
        <path d="M80 110 Q90 80 130 90 100 85 85 115" style="stroke:none; fill:green;" />
        <circle cx="50" cy="60" r="10" style="fill:gray;" />
        <g style="stroke:black; fill:yellow;">
            <use xlink:href="#petal" transform="translate(50,60)" />
            <use xlink:href="#petal" transform="translate(50,60) rotate(40)" />
            <use xlink:href="#petal" transform="translate(50,60) rotate(80)" />
            <use xlink:href="#petal" transform="translate(50,60) rotate(120)" />
            <use xlink:href="#petal" transform="translate(50,60) rotate(160)" />
            <use xlink:href="#petal" transform="translate(50,60) rotate(200)" />
            <use xlink:href="#petal" transform="translate(50,60) rotate(240)" />
            <use xlink:href="#petal" transform="translate(50,60) rotate(280)" />
            <use xlink:href="#petal" transform="translate(50,60) rotate(320)" />
        </g>
    </g>
    <text>
        <tspan x="220" y="190">gamma</tspan>
    </text>
    <image xlink:href="sky.jpg" x="320" y="30" width="122" height="104" />

</svg>