<svg width="400" height="300" viewBox="0 0 400 300" xmlns="http://www.w3.org/2000/svg">
    <style type="text/css">
        .mono{
            font-family: 'Liberation Mono', 'Courier New', Courier, monospace;
        }
    </style>
    <defs>
        <g id="A">
            <!--black-->
            <rect width="20" height="20" x="0" y="0" fill="#000" />
            <!--yellow-->
            <rect width="20" height="20" x="20" y="0" fill="#ff0" />
            <!--red-->
            <rect width="20" height="20" x="40" y="0" fill="#f00" />
            <!--light green-->
            <rect width="20" height="20" x="60" y="0" fill="#0c0" />
            <!--dark blue-->
            <rect width="20" height="20" x="80" y="0" fill="#009" />
            <g fill-opacity="0.5">
                <rect width="20" height="20" x="110" y="0" fill="#000" />
                <rect width="20" height="20" x="130" y="0" fill="#ff0" />
                <rect width="20" height="20" x="150" y="0" fill="#f00" />
                <rect width="20" height="20" x="170" y="0" fill="#0c0" />
                <rect width="20" height="20" x="190" y="0" fill="#009" />
            </g>
        </g>
        <filter id="Normal" color-interpolation-filters="sRGB"
            x="0" y="0" width="100%" height="100%">
            <feImage xlink:href="#A" result="A"/>
            <feBlend mode="normal" in2="A" in="SourceGraphic"/>
        </filter>
        <filter id="Multiple" color-interpolation-filters="sRGB"
            x="0" y="0" width="100%" height="100%">
            <feImage xlink:href="#A" result="A"/>
            <feBlend mode="multiply" in2="A" in="SourceGraphic"/>
        </filter>
        <filter id="Screen" color-interpolation-filters="sRGB"
            x="0" y="0" width="100%" height="100%">
            <feImage xlink:href="#A" result="A"/>
            <feBlend mode="screen" in2="A" in="SourceGraphic"/>
        </filter>
        <filter id="Darken" color-interpolation-filters="sRGB"
            x="0" y="0" width="100%" height="100%">
            <feImage xlink:href="#A" result="A"/>
            <feBlend mode="darken" in2="A" in="SourceGraphic"/>
        </filter>
        <filter id="Lighten" color-interpolation-filters="sRGB"
            x="0" y="0" width="100%" height="100%">
            <feImage xlink:href="#A" result="A"/>
            <feBlend mode="lighten" in2="A" in="SourceGraphic"/>
        </filter>
        <linearGradient id="white_to_black" x1="0%" y1="0%" x2="0%" y2="100%">
            <stop offset="0%" stop-color="#fff" />
            <stop offset="100%" stop-color="#000" />
        </linearGradient>
        <g id="grays" style="fill:url(#white_to_black); fill-opacity:1;">
            <rect width="100" height="20" x="0" y="0" />
            <rect width="100" height="20" x="110" y="0" />
        </g>
    </defs>
    <text x="70" y="30" style="text-anchor:middle;">Opaque</text>
    <text x="180" y="30" style="text-anchor:middle;">50% Opaque</text>
    <g transform="translate(20,40)">
        <use xlink:href="#A" />
        <text x="220" y="15" class="mono">Original</text>

        <use xlink:href="#grays" transform="translate(0,30)" filter="url(#Normal)" />
        <text x="220" y="45" class="mono">normal</text>

        <use xlink:href="#grays" transform="translate(0,60)" filter="url(#Multiple)" />
        <text x="220" y="75" class="mono">multiply</text>

        <use xlink:href="#grays" transform="translate(0,90)" filter="url(#Screen)" />
        <text x="220" y="105" class="mono">screen</text>

        <use xlink:href="#grays" transform="translate(0,120)" filter="url(#Darken)" />
        <text x="220" y="135" class="mono">darken</text>

        <use xlink:href="#grays" transform="translate(0,150)" filter="url(#Lighten)" />
        <text x="220" y="165" class="mono">lighten</text>
    </g>
</svg>